<?xml version="1.0" encoding="UTF-8" standalone="no"?>
<svg
   xmlns:dc="http://purl.org/dc/elements/1.1/"
   xmlns:cc="http://creativecommons.org/ns#"
   xmlns:rdf="http://www.w3.org/1999/02/22-rdf-syntax-ns#"
   xmlns:svg="http://www.w3.org/2000/svg"
   xmlns="http://www.w3.org/2000/svg"
   xmlns:sodipodi="http://sodipodi.sourceforge.net/DTD/sodipodi-0.dtd"
   xmlns:inkscape="http://www.inkscape.org/namespaces/inkscape"
   fill="#fff"
   id="Capa_1"
   enable-background="new 0 0 512 512"
   height="512"
   viewBox="0 0 512 512"
   width="512"
   version="1.1"
   sodipodi:docname="uniquetech.svg"
   inkscape:version="0.92.3 (2405546, 2018-03-11)">
  <metadata
     id="metadata25">
    <rdf:RDF>
      <cc:Work
         rdf:about="">
        <dc:format>image/svg+xml</dc:format>
        <dc:type
           rdf:resource="http://purl.org/dc/dcmitype/StillImage" />
        <dc:title></dc:title>
      </cc:Work>
    </rdf:RDF>
  </metadata>
  <defs
     id="defs23" />
  <sodipodi:namedview
     pagecolor="#ffffff"
     bordercolor="#666666"
     borderopacity="1"
     objecttolerance="10"
     gridtolerance="10"
     guidetolerance="10"
     inkscape:pageopacity="0"
     inkscape:pageshadow="2"
     inkscape:window-width="1920"
     inkscape:window-height="1017"
     id="namedview21"
     showgrid="false"
     inkscape:zoom="0.921875"
     inkscape:cx="256"
     inkscape:cy="205.28075"
     inkscape:window-x="-4"
     inkscape:window-y="-4"
     inkscape:window-maximized="1"
     inkscape:current-layer="g18" />
  <g
     id="g18">
    <path
       style="stroke-width:1.10980785"
       inkscape:connector-curvature="0"
       d="m 275.59407,477.60826 h -32.28846 c -13.37839,0 -24.26405,-10.88565 -24.26405,-24.26404 v -13.36973 c -17.28004,-4.1661 -33.72341,-11.00269 -49.01363,-20.3667 l -9.50272,9.4984 c -9.16026,9.17759 -25.14408,9.17759 -34.30867,0 l -22.8291,-22.82911 c -4.582302,-4.58228 -7.109713,-10.67756 -7.109713,-17.15866 0,-6.4811 2.527411,-12.57204 7.114043,-17.15001 l 9.49406,-9.50272 C 103.5175,347.17116 96.685233,330.73212 92.514789,313.44772 H 79.149405 c -13.374051,0 -24.259708,-10.8813 -24.259708,-24.25969 v -32.28847 c 0,-13.37406 10.881326,-24.25972 24.259708,-24.25972 h 13.365384 c 4.170444,-17.28439 11.002711,-33.72341 20.371041,-49.01796 l -9.49839,-9.50273 c -4.582302,-4.57796 -7.109713,-10.66889 -7.109713,-17.15 0,-6.48109 2.527411,-12.57637 7.109713,-17.15867 l 22.83343,-22.82475 c 9.16026,-9.1776 25.14408,-9.1776 34.31301,0 l 9.49405,9.49839 c 15.29888,-9.36401 31.73359,-16.2006 49.01363,-20.36671 V 92.74769 c 0,-13.378382 10.88566,-24.264039 24.26405,-24.264039 h 32.28846 c 13.38272,0 24.26404,10.885657 24.26404,24.264039 v 13.36972 c 2.60546,0.6286 5.20657,1.32223 7.77734,2.07223 4.01872,1.16616 6.32502,5.37996 5.15452,9.39434 -1.17483,4.01872 -5.39296,6.32938 -9.39434,5.1502 -4.1661,-1.21385 -8.41459,-2.26297 -12.61973,-3.117 -3.52884,-0.7153 -6.06926,-3.82364 -6.06926,-7.42617 V 92.74769 c 0,-5.024477 -4.08808,-9.10822 -9.11257,-9.10822 h -32.28846 c -5.02016,0 -9.11257,4.083743 -9.11257,9.10822 v 19.44332 c 0,3.60253 -2.53608,6.71087 -6.06493,7.4305 -19.59938,3.97537 -38.09763,11.66166 -54.97017,22.8421 -3.01294,1.98118 -6.99699,1.59102 -9.54175,-0.96241 L 149.8173,127.70231 c -3.43781,-3.44649 -9.44203,-3.44649 -12.87984,0 l -22.83344,22.82909 c -1.72107,1.72107 -2.67047,4.01005 -2.67047,6.44209 0,2.43637 0.94507,4.71235 2.66614,6.43776 l 13.79889,13.79889 c 2.54909,2.54476 2.94793,6.53313 0.96242,9.53307 -11.17611,16.8769 -18.86239,35.37513 -22.84209,54.98319 -0.71965,3.5245 -3.82365,6.06492 -7.426185,6.06492 h -19.44332 c -5.020147,0 -9.108229,4.08375 -9.108229,9.10824 v 32.28847 c 0,5.02447 4.083751,9.10823 9.108229,9.10823 h 19.447657 c 3.602548,0 6.706518,2.54041 7.421848,6.06492 3.98402,19.60805 11.66598,38.10629 22.84209,54.98318 1.98551,3.00428 1.58667,6.98832 -0.96242,9.53306 l -13.79456,13.79891 c -1.72107,1.72541 -2.67047,4.00139 -2.67047,6.43776 0,2.43204 0.9494,4.72101 2.67047,6.44209 l 22.83344,22.83342 c 3.43781,3.44214 9.44203,3.45515 12.87984,0 l 13.79889,-13.79889 c 2.5491,-2.54476 6.52881,-2.94359 9.54175,-0.96242 16.87689,11.18045 35.37514,18.86672 54.97017,22.8421 3.52885,0.71964 6.06927,3.82797 6.06927,7.43051 v 19.44332 c 0,5.02015 4.08807,9.10822 9.11256,9.10822 h 32.28848 c 5.02014,0 9.11256,-4.08375 9.11256,-9.10822 V 433.9009 c 0,-3.60254 2.53608,-6.71087 6.06492,-7.43051 19.59938,-3.97538 38.09762,-11.66165 54.97017,-22.8421 3.01729,-1.98117 6.99266,-1.58234 9.54174,0.96242 l 13.79892,13.79889 c 3.44213,3.45515 9.44636,3.44214 12.8755,0 l 22.83776,-22.83342 c 1.72108,-1.72108 2.67048,-4.01005 2.67048,-6.44209 0,-2.43637 -0.94507,-4.71235 -2.66614,-6.43776 l -13.79891,-13.79891 c -2.54908,-2.54474 -2.94792,-6.52878 -0.96241,-9.53306 11.17612,-16.87689 18.8624,-35.37513 22.8421,-54.98318 0.71964,-3.52451 3.82364,-6.06492 7.42618,-6.06492 h 19.44332 c 5.02448,0 9.10822,-4.08376 9.10822,-9.10823 v -32.28847 c 0,-5.02449 -4.08374,-9.10824 -9.10822,-9.10824 h -19.44332 c -3.60254,0 -6.71086,-2.54042 -7.42618,-6.0736 -1.56934,-7.73397 -3.76293,-15.42893 -6.51578,-22.86811 -1.45662,-3.93202 0.54624,-8.28887 4.46958,-9.74116 3.906,-1.46963 8.28021,0.5419 9.73249,4.46957 2.31065,6.22967 4.25715,12.6154 5.81349,19.0575 h 13.36972 c 13.37404,0 24.25969,10.88564 24.25969,24.26404 v 32.28847 c 0,13.37404 -10.88131,24.25969 -24.25969,24.25969 h -13.36539 c -4.17045,17.2844 -11.0027,33.72344 -20.37104,49.01797 l 9.49839,9.49839 c 4.5823,4.5823 7.10972,10.6689 7.10972,17.15001 0,6.4811 -2.52742,12.58071 -7.10972,17.15867 l -22.83342,22.83343 c -9.16025,9.17759 -25.14408,9.17759 -34.31302,0 l -9.49405,-9.4984 c -15.29888,9.36401 -31.73357,16.2006 -49.01362,20.3667 v 13.36973 c -0.005,13.37839 -10.88567,24.26404 -24.26839,24.26404 z M 259.44984,338.07594 c -35.85632,0 -65.03214,-29.17582 -65.03214,-65.02781 0,-35.85634 29.17582,-65.02781 65.03214,-65.02781 35.86066,0 65.03214,29.17147 65.03214,65.02781 0,35.85199 -29.17148,65.02781 -65.03214,65.02781 z m 0,-114.90415 c -27.50243,0 -49.87633,22.37391 -49.87633,49.87634 0,27.50242 22.36958,49.87199 49.87633,49.87199 27.50675,0 49.88067,-22.36957 49.88067,-49.87199 0,-27.50243 -22.37825,-49.87634 -49.88067,-49.87634 z m 0,0"
       id="path2" />
    <path
       style="stroke-width:1.10980785"
       inkscape:connector-curvature="0"
       d="m 392.03719,223.8004 c -52.22165,0 -94.70649,-42.48483 -94.70649,-94.70216 0,-52.221666 42.48484,-94.706501 94.70649,-94.706501 52.21735,0 94.70218,42.484835 94.70218,94.706501 0,52.21733 -42.48483,94.70216 -94.70218,94.70216 z m 0,-174.252843 c -43.86341,0 -79.555,35.682922 -79.555,79.550683 0,43.86775 35.69159,79.55068 79.555,79.55068 43.8591,0 79.5507,-35.68293 79.5507,-79.55068 0,-43.867761 -35.6916,-79.550683 -79.5507,-79.550683 z m 0,0"
       id="path4" />
    <path
       style="stroke-width:1.10980785"
       inkscape:connector-curvature="0"
       d="m 363.73709,87.229005 c 0,-0.797674 0.52891,-1.322239 1.32224,-1.322239 h 33.51533 c 19.08349,0 28.08767,9.533076 28.08767,23.977924 0,10.2007 -4.76869,16.02284 -10.4608,19.07049 v 0.26877 c 5.56204,2.12425 12.05183,9.2773 12.05183,20.27134 0,17.88265 -11.26282,26.49667 -31.00094,26.49667 h -32.19309 c -0.79333,0 -1.32224,-0.53322 -1.32224,-1.32658 z m 34.44742,36.164115 c 7.94638,0 12.84947,-4.76437 12.84947,-11.78736 0,-7.15306 -4.90309,-11.926094 -12.84947,-11.926094 h -18.02572 c -0.52456,0 -0.79334,0.264439 -0.79334,0.788994 v 22.13113 c 0,0.52455 0.26878,0.79333 0.79334,0.79333 z m -18.02572,38.82161 h 18.8147 c 8.74842,0 13.64283,-5.04183 13.64283,-12.58938 0,-7.41751 -4.89441,-12.45932 -13.64283,-12.45932 h -18.8147 c -0.52456,0 -0.79334,0.26877 -0.79334,0.802 v 23.4447 c 0,0.53322 0.26878,0.802 0.79334,0.802 z m 0,0"
       id="path6" />
    <path
       style="stroke-width:1.10980785"
       inkscape:connector-curvature="0"
       d="m 388.24824,98.790943 c -4.18345,0 -7.5779,-3.385781 -7.5779,-7.573573 V 76.06156 c 0,-4.187791 3.39445,-7.573569 7.5779,-7.573569 4.18347,0 7.57358,3.385778 7.57358,7.573569 v 15.15581 c 0,4.187792 -3.39011,7.573573 -7.57358,7.573573 z m 0,0"
       id="path8" />
    <path
       style="stroke-width:1.10980785"
       inkscape:connector-curvature="0"
       d="m 388.24824,189.70849 c -4.18345,0 -7.5779,-3.39012 -7.5779,-7.57792 v -7.57356 c 0,-4.18778 3.39445,-7.5779 7.5779,-7.5779 4.18347,0 7.57358,3.39012 7.57358,7.5779 v 7.57356 c 0,4.1878 -3.39011,7.57792 -7.57358,7.57792 z m 0,0"
       id="path10" />
    <path
       style="stroke-width:1.10980785"
       inkscape:connector-curvature="0"
       d="m 259.44984,273.04813 h -90.9132 c -2.25431,0 -4.38288,-1.00144 -5.82217,-2.72683 L 127.10526,227.58935 H 39.738218 c -4.183452,0 -7.5779,-3.39012 -7.5779,-7.5779 0,-4.18779 3.394448,-7.57357 7.5779,-7.57357 h 90.913222 c 2.24995,0 4.38287,0.99708 5.82215,2.72248 l 35.60922,42.73195 h 87.36703 c 4.18346,0 7.57791,3.39012 7.57791,7.5779 0,4.1878 -3.39445,7.57792 -7.57791,7.57792 z m 0,0"
       id="path12" />
    <path
       style="stroke-width:1.10980785"
       inkscape:connector-curvature="0"
       d="M 176.1102,386.69072 H 39.738218 c -4.183452,0 -7.5779,-3.39011 -7.5779,-7.57792 0,-4.18778 3.394448,-7.57356 7.5779,-7.57356 H 171.4282 l 13.05759,-26.1195 c 1.87279,-3.74127 6.41607,-5.2586 10.16601,-3.38579 3.74561,1.86848 5.25859,6.42041 3.39011,10.16601 l -15.15581,30.30297 c -1.28321,2.57076 -3.90167,4.18779 -6.7759,4.18779 z m 0,0"
       id="path14" />
    <path
       style="stroke-width:1.10980785"
       inkscape:connector-curvature="0"
       d="m 229.14688,356.38777 h -37.8852 c -4.18345,0 -7.57357,-3.39012 -7.57357,-7.57792 0,-4.18778 3.39012,-7.5779 7.57357,-7.5779 h 37.8852 c 4.18346,0 7.57358,3.39012 7.57358,7.5779 0,4.1878 -3.39012,7.57792 -7.57358,7.57792 z m 0,0"
       id="path16" />
    <path
       style="stroke-width:1.10980785"
       inkscape:connector-curvature="0"
       d="m 229.14255,356.38777 c -1.74708,0 -3.50283,-0.60261 -4.92912,-1.82946 -3.17769,-2.72249 -3.54619,-7.50421 -0.82366,-10.67757 l 45.45875,-53.03235 c 1.43928,-1.68203 3.54185,-2.6488 5.7528,-2.6488 h 83.33963 c 4.18346,0 7.57358,3.39013 7.57358,7.57792 0,4.1878 -3.39012,7.57357 -7.57358,7.57357 h -79.85414 l -43.19148,50.38787 c -1.49563,1.75144 -3.61987,2.64882 -5.75278,2.64882 z m 0,0"
       id="path18" />
    <path
       style="stroke-width:1.10980785"
       inkscape:connector-curvature="0"
       d="m 47.316128,220.01145 c 0,8.37124 -6.784565,15.1558 -15.15581,15.1558 -8.366913,0 -15.151479,-6.78456 -15.151479,-15.1558 0,-8.36692 6.784566,-15.15149 15.151479,-15.15149 8.371245,0 15.15581,6.78457 15.15581,15.15149 z m 0,0"
       id="path20" />
    <path
       style="stroke-width:1.10980785"
       inkscape:connector-curvature="0"
       d="m 47.316128,379.1128 c 0,8.37125 -6.784565,15.15582 -15.15581,15.15582 -8.366913,0 -15.151479,-6.78457 -15.151479,-15.15582 0,-8.3669 6.784566,-15.15146 15.151479,-15.15146 8.371245,0 15.15581,6.78456 15.15581,15.15146 z m 0,0"
       id="path22" />
  </g>
</svg>
