<?xml version="1.0" encoding="UTF-8" standalone="no"?>
<svg
   xmlns:dc="http://purl.org/dc/elements/1.1/"
   xmlns:cc="http://creativecommons.org/ns#"
   xmlns:rdf="http://www.w3.org/1999/02/22-rdf-syntax-ns#"
   xmlns:svg="http://www.w3.org/2000/svg"
   xmlns="http://www.w3.org/2000/svg"
   xmlns:sodipodi="http://sodipodi.sourceforge.net/DTD/sodipodi-0.dtd"
   xmlns:inkscape="http://www.inkscape.org/namespaces/inkscape"
   fill="#fff"
   id="Capa_1"
   enable-background="new 0 0 512 512"
   height="512"
   viewBox="0 0 512 512"
   width="512"
   version="1.1"
   sodipodi:docname="worldclass.svg"
   inkscape:version="0.92.3 (2405546, 2018-03-11)">
  <metadata
     id="metadata25">
    <rdf:RDF>
      <cc:Work
         rdf:about="">
        <dc:format>image/svg+xml</dc:format>
        <dc:type
           rdf:resource="http://purl.org/dc/dcmitype/StillImage" />
        <dc:title></dc:title>
      </cc:Work>
    </rdf:RDF>
  </metadata>
  <defs
     id="defs23" />
  <sodipodi:namedview
     pagecolor="#ffffff"
     bordercolor="#666666"
     borderopacity="1"
     objecttolerance="10"
     gridtolerance="10"
     guidetolerance="10"
     inkscape:pageopacity="0"
     inkscape:pageshadow="2"
     inkscape:window-width="1920"
     inkscape:window-height="1017"
     id="namedview21"
     showgrid="false"
     inkscape:zoom="0.921875"
     inkscape:cx="256"
     inkscape:cy="205.28075"
     inkscape:window-x="-4"
     inkscape:window-y="-4"
     inkscape:window-maximized="1"
     inkscape:current-layer="g18" />
  <g
     id="g18">
    <path
       style="stroke-width:1.22438359"
       inkscape:connector-curvature="0"
       d="m 261.42373,420.00859 c -86.51013,0 -156.89382,-72.11447 -156.89382,-160.75194 0,-43.61917 16.76431,-84.44015 47.19808,-114.93001 3.26498,-3.27264 8.50973,-3.20002 11.67549,0.13072 3.19411,3.33558 3.13267,8.69963 -0.12758,11.96259 -27.23021,27.28499 -42.22738,63.80214 -42.22738,102.8367 0,79.30849 62.97016,143.82711 140.37521,143.82711 10.53204,0 21.031,-1.19577 31.1992,-3.56794 4.49349,-1.02635 8.8783,1.82511 9.88472,6.38069 1.01116,4.5604 -1.78133,9.08693 -6.22283,10.12778 -11.36836,2.64329 -23.10528,3.98431 -34.86109,3.9843 z m 0,0"
       id="path2" />
    <path
       style="stroke-width:1.22438359"
       inkscape:connector-curvature="0"
       d="m 367.18354,374.71921 c -2.09791,0 -4.19108,-0.80849 -5.80704,-2.43514 -3.24135,-3.28717 -3.27442,-8.64153 -0.0708,-11.97226 26.11984,-27.08167 40.49803,-62.97429 40.49803,-101.05516 0,-79.31332 -62.97488,-143.83195 -140.37992,-143.83195 -10.53205,0 -21.031,1.19578 -31.20868,3.5728 -4.50765,1.00697 -8.87828,-1.82513 -9.88471,-6.3807 -1.00642,-4.5604 1.78133,-9.09661 6.22757,-10.12778 11.37781,-2.648128 23.11,-3.984298 34.86582,-3.984298 86.51013,0 156.89383,72.114458 156.89383,160.751928 0,42.55897 -16.06976,82.67312 -45.25612,112.94997 -1.62067,1.67021 -3.74693,2.51259 -5.87791,2.51259 z m 0,0"
       id="path4" />
    <path
       style="stroke-width:1.22438359"
       inkscape:connector-curvature="0"
       d="m 352.25725,496.15094 c -36.42508,0 -66.06033,-30.36399 -66.06033,-67.68477 0,-37.32079 29.63525,-67.68478 66.06033,-67.68478 6.47797,0 12.87091,0.95857 19.00869,2.84178 l -4.74391,16.21318 c -4.5927,-1.41364 -9.39331,-2.13497 -14.26478,-2.13497 -27.31999,0 -49.54642,22.77299 -49.54642,50.76479 0,27.99179 22.22643,50.76479 49.54642,50.76479 6.1047,0 12.05821,-1.11348 17.68569,-3.32107 l 5.90153,15.79684 c -7.5222,2.94828 -15.45549,4.44421 -23.58722,4.44421 z m 0,0"
       id="path6" />
    <path
       style="stroke-width:1.22438359"
       inkscape:connector-curvature="0"
       d="m 393.54435,496.15094 c -36.42507,0 -66.06031,-30.36399 -66.06031,-67.68477 0,-37.32079 29.63524,-67.68478 66.06031,-67.68478 8.11284,0 16.04611,1.48626 23.5636,4.4297 l -5.88736,15.81619 c -5.63693,-2.20759 -11.58099,-3.32106 -17.67624,-3.32106 -27.31999,0 -49.54642,22.77298 -49.54642,50.76479 0,27.9918 22.22643,50.75995 49.54642,50.75995 6.11416,0 12.08184,-1.12316 17.73295,-3.33558 l 5.90152,15.79682 c -7.54583,2.95797 -15.49802,4.45875 -23.63447,4.45874 z m 0,0"
       id="path8" />
    <path
       style="stroke-width:1.22438359"
       inkscape:connector-curvature="0"
       d="m 434.83144,496.15094 c -36.42506,0 -66.0603,-30.36399 -66.0603,-67.68477 0,-37.32079 29.63524,-67.68478 66.0603,-67.68478 36.42981,0 66.06031,30.36399 66.06031,67.68478 0,37.32078 -29.6305,67.68477 -66.06031,67.68477 z m 0,-118.44956 c -27.31998,0 -49.54168,22.77299 -49.54168,50.76479 0,27.99179 22.2217,50.76479 49.54168,50.76479 27.32,0 49.54642,-22.773 49.54642,-50.76479 0,-27.9918 -22.22642,-50.76479 -49.54642,-50.76479 z m 0,0"
       id="path10" />
    <path
       style="stroke-width:1.22438359"
       inkscape:connector-curvature="0"
       d="m 433.30055,471.03481 v -10.24398 c -5.74089,-0.10162 -11.68494,-1.93648 -15.14365,-4.47326 l 2.37195,-6.78735 c 3.56265,2.42544 8.71764,4.35707 14.25535,4.35707 7.03081,0 11.78889,-4.16342 11.78889,-9.94382 0,-5.57706 -3.86033,-9.03367 -11.19354,-12.07394 -10.09734,-4.06177 -16.33907,-8.73353 -16.33907,-17.55902 0,-8.414 5.84011,-14.81407 14.95464,-16.3342 v -10.25366 h 6.14251 v 9.84701 c 5.93461,0.19848 10.00284,1.82511 12.87091,3.54859 l -2.47589,6.70021 c -2.07428,-1.21513 -6.13779,-3.45662 -12.47402,-3.45662 -7.63088,0 -10.49897,4.67177 -10.49897,8.73353 0,5.27207 3.65716,7.91536 12.2803,11.57046 10.20129,4.25541 15.34682,9.53231 15.34682,18.56114 0,8.01703 -5.44321,15.52572 -15.6445,17.25403 v 10.54896 h -6.24173 z m 0,0"
       id="path12" />
    <path
       style="stroke-width:1.22438359"
       inkscape:connector-curvature="0"
       d="m 162.60023,250.36338 c -1.31356,0 -2.62238,-0.10646 -3.90285,-0.31952 -8.18844,-1.35553 -15.08222,-7.0149 -19.4245,-15.9227 -0.0284,-0.0387 -2.52789,-4.74921 -22.29732,-9.03852 -2.24437,-0.48411 -4.19579,-1.90743 -5.37232,-3.92137 -1.18597,-2.02361 -1.49311,-4.4539 -0.85522,-6.70989 7.49858,-26.48618 21.67359,-50.73089 40.99415,-70.10537 3.26969,-3.27265 8.49083,-3.20003 11.67548,0.13071 3.18938,3.33559 3.13268,8.68995 -0.12757,11.9626 -15.22397,15.25946 -26.87584,33.89806 -34.02004,54.30855 13.48989,3.89231 21.44207,8.99978 24.7732,15.80649 1.96088,4.02305 4.41787,6.31293 7.30014,6.7922 4.51237,0.70198 10.79664,-2.51741 17.09978,-8.99009 1.9231,-1.96553 3.95956,-3.94074 6.01494,-5.91595 7.89549,-7.62004 16.06503,-15.49183 16.16898,-22.7633 0.0567,-3.94074 -2.33889,-8.42368 -7.12531,-13.33751 -7.02608,-7.194 -12.12909,-17.26369 -15.16255,-29.94763 -1.08675,-4.53619 1.62068,-9.12082 6.04801,-10.22945 4.42261,-1.14736 8.90191,1.66053 9.98393,6.19674 2.31526,9.63397 5.95352,17.03617 10.8061,22.01776 8.0703,8.2736 12.09601,16.87641 11.96844,25.56636 -0.21735,14.41708 -11.45341,25.25651 -21.36649,34.81788 -1.93252,1.85902 -3.85087,3.70836 -5.66055,5.5577 -8.93026,9.16438 -18.55982,14.04431 -27.51843,14.04431 z m 0,0"
       id="path14" />
    <path
       style="stroke-width:1.22438359"
       inkscape:connector-curvature="0"
       d="m 170.59022,157.72708 c -8.1223,0 -16.06031,-1.49593 -23.60141,-4.44422 -4.26668,-1.67021 -6.39766,-6.55983 -4.77226,-10.92175 1.63486,-4.37159 6.43073,-6.54529 10.65962,-4.8896 5.66055,2.21242 11.61878,3.33559 17.71405,3.33559 27.31997,0 49.5464,-22.773 49.5464,-50.764788 0,-27.991802 -22.22643,-50.764797 -49.5464,-50.764797 -4.21471,0 -8.38217,0.537379 -12.3937,1.597594 -4.39425,1.205463 -8.91609,-1.544336 -10.05482,-6.075702 -1.14817,-4.51683 1.50729,-9.135331 5.92517,-10.302062 5.35815,-1.418468 10.91948,-2.13981 16.52335,-2.13981 36.42506,0 66.06031,30.363982 66.06031,67.684777 0,37.320778 -29.63525,67.684768 -66.06031,67.684768 z m 0,0"
       id="path16" />
    <path
       style="stroke-width:1.22438359"
       inkscape:connector-curvature="0"
       d="m 129.30311,157.72708 c -8.12701,0 -16.0603,-1.49593 -23.6014,-4.44906 -4.25723,-1.67021 -6.388208,-6.56467 -4.76281,-10.92659 1.63013,-4.36675 6.39766,-6.53561 10.66434,-4.87508 5.64638,2.20758 11.59516,3.33075 17.69987,3.33075 27.31998,0 49.54641,-22.773 49.54641,-50.764788 0,-27.991802 -22.22643,-50.764797 -49.54641,-50.764797 -4.81479,0 -9.58231,0.711661 -14.16085,2.110767 -4.3848,1.30228 -8.96806,-1.234506 -10.27216,-5.702932 -1.29937,-4.478107 1.1907,-9.18859 5.56134,-10.524767 6.11415,-1.859011 12.46456,-2.803048 18.87167,-2.803048 36.42508,0 66.0603,30.363982 66.0603,67.684777 0,37.320778 -29.63522,67.684768 -66.0603,67.684768 z m 0,0"
       id="path18" />
    <path
       style="stroke-width:1.22438359"
       inkscape:connector-curvature="0"
       d="m 88.016002,157.72708 c -36.425063,0 -66.060305,-30.36399 -66.060305,-67.684768 0,-37.320795 29.635242,-67.684777 66.060305,-67.684777 36.425078,0 66.060308,30.363982 66.060308,67.684777 0,37.320778 -29.63523,67.684768 -66.060308,67.684768 z m 0,-118.449565 c -27.319978,0 -49.546403,22.772995 -49.546403,50.764797 0,27.991788 22.226425,50.764788 49.546403,50.764788 27.319988,0 49.546418,-22.773 49.546418,-50.764788 0,-27.991802 -22.22643,-50.764797 -49.546418,-50.764797 z m 0,0"
       id="path20" />
    <path
       style="stroke-width:1.22438359"
       inkscape:connector-curvature="0"
       d="m 68.681285,56.318527 c 0,-0.595464 0.387449,-1.002121 0.97335,-1.002121 h 23.563607 c 13.395388,0 20.038748,7.014893 20.038748,17.93179 0,7.915352 -3.70913,12.722661 -8.89718,14.828583 v 0.198488 c 4.50293,1.307125 10.0737,6.613085 10.0737,15.733893 0,12.72751 -7.81988,19.43256 -21.706668,19.43256 H 69.654635 c -0.590621,0 -0.978078,-0.39698 -0.978078,-0.99729 V 56.318527 Z m 24.343237,28.451712 c 7.328478,0 11.637678,-4.308662 11.637678,-10.621584 0,-6.51141 -4.3092,-10.718409 -11.637678,-10.718409 H 77.961197 c -0.387448,0 -0.581173,0.203333 -0.581173,0.605154 v 20.134539 c 0,0.406657 0.193725,0.605145 0.581173,0.605145 H 93.024522 Z M 77.961197,115.32787 h 15.545275 c 7.919108,0 12.228308,-4.41517 12.228308,-11.22189 0,-6.709898 -4.3092,-11.221888 -12.228308,-11.221888 H 77.961197 c -0.387448,0 -0.581173,0.19848 -0.581173,0.60031 v 21.238328 c 0,0.40182 0.193725,0.60514 0.581173,0.60514 z m 0,0"
       id="path22" />
    <path
       style="stroke-width:1.22438359"
       inkscape:connector-curvature="0"
       d="m 237.73255,390.04159 c -9.77603,0 -18.7252,-5.13167 -19.98205,-5.89174 -3.37366,-2.01878 -4.90456,-6.18221 -3.68078,-9.97286 6.75676,-20.8123 7.94746,-41.7989 4.14856,-43.74022 -3.79892,-1.951 -7.82934,-2.68202 -12.10548,-3.44692 -10.25799,-1.85419 -23.02023,-4.1586 -29.65886,-24.57393 -9.69098,-29.8024 3.45398,-40.93716 27.79721,-49.25917 15.62087,-5.34468 33.00417,-3.98431 46.51297,3.62606 12.29918,6.92291 20.7097,18.40139 24.31014,33.19124 5.75979,23.58631 -0.34491,39.49449 -6.81345,56.34185 -2.92477,7.63456 -5.94878,15.52572 -8.24041,24.87892 -2.56568,10.52475 -8.53336,15.07548 -13.07882,17.04584 -3.00982,1.29745 -6.15196,1.80093 -9.20903,1.80093 z m -15.82404,-13.19711 h 0.0803 z m 10.05952,-4.7492 c 3.14214,0.99244 6.4591,1.46204 8.5759,0.54704 0.58118,-0.25658 2.35778,-1.02633 3.46342,-5.55284 2.53733,-10.42311 5.90626,-19.20987 8.88302,-26.96063 6.1803,-16.09698 10.63599,-27.72069 6.17086,-46.05431 -2.49954,-10.23914 -7.96637,-17.79624 -16.2493,-22.45831 -9.54924,-5.36888 -22.02325,-6.27903 -33.33492,-2.41091 -20.2183,6.91806 -22.81233,11.07666 -17.36441,27.86109 3.53432,10.85879 7.71122,11.60918 16.86356,13.26002 5.00851,0.90048 10.67852,1.92681 16.62729,4.97677 16.9108,8.6609 11.01399,39.9205 6.36458,56.79208 z m 0,0"
       id="path24" />
    <path
       style="stroke-width:1.22438359"
       inkscape:connector-curvature="0"
       d="m 336.1875,338.22626 c -8.96806,0 -17.4022,-4.37645 -22.27368,-9.3774 -6.97412,-7.13108 -16.40995,-39.56226 -17.39275,-50.59051 -2.49481,-3.60186 -12.75751,-12.36925 -19.67965,-18.27552 -18.93309,-16.17443 -25.55283,-22.46799 -25.55283,-29.64748 0,-15.41922 22.02325,-16.1696 60.9384,-16.1696 9.53507,0 15.47439,-5.78523 18.81497,-10.68452 -6.42601,-2.88536 -16.55642,-7.14561 -28.95955,-11.3865 -4.69194,-1.60243 -7.98054,-5.18975 -9.02004,-9.83247 -1.80023,-8.0025 1.4931,-21.31578 39.50577,-59.39664 2.70271,-2.69171 6.82291,-3.17099 10.05482,-1.1861 29.02098,18.01894 51.93254,45.71058 64.5105,77.97717 0.84106,2.14948 0.78436,4.54103 -0.1512,6.64211 -16.10282,36.23153 -25.3213,44.19045 -30.85429,47.03223 -4.62578,2.36735 -5.42429,8.23004 -6.37876,23.13125 -0.57645,9.14985 -1.3041,20.51697 -4.36118,33.03632 -4.65413,19.08399 -14.56246,25.62928 -22.06105,27.74973 -2.3814,0.67778 -4.77699,0.97793 -7.13948,0.97793 z M 271.44546,232.79952 c 4.30921,4.22153 10.99982,9.93897 15.9658,14.18471 18.91893,16.15508 25.53866,22.44862 25.53866,29.62328 0,6.06118 8.96334,35.76676 12.73389,40.37558 2.3247,2.38187 8.24986,5.41246 13.23474,3.9601 5.91099,-1.67991 8.93972,-9.38224 10.44699,-15.54509 2.68853,-11.03793 3.33113,-21.13182 3.90758,-30.02995 0.9828,-15.54991 1.91836,-30.24294 15.46495,-37.17554 0.756,-0.38729 7.62143,-4.60882 21.71612,-35.57312 -10.65962,-25.44048 -28.55321,-47.50182 -50.997,-62.93556 -22.17444,22.77784 -28.09488,33.24934 -29.67303,37.22397 21.48933,7.50869 35.62655,14.70271 36.2408,15.02222 3.67605,1.88324 5.44321,6.24516 4.13438,10.24398 -0.378,1.18125 -9.73351,28.91647 -37.93235,28.91647 -10.68323,0 -30.64165,0 -40.78153,1.70895 z m 0,0"
       id="path26" />
  </g>
</svg>
