<?xml version="1.0" encoding="UTF-8" standalone="no"?>
<svg
   xmlns:dc="http://purl.org/dc/elements/1.1/"
   xmlns:cc="http://creativecommons.org/ns#"
   xmlns:rdf="http://www.w3.org/1999/02/22-rdf-syntax-ns#"
   xmlns:svg="http://www.w3.org/2000/svg"
   xmlns="http://www.w3.org/2000/svg"
   xmlns:sodipodi="http://sodipodi.sourceforge.net/DTD/sodipodi-0.dtd"
   xmlns:inkscape="http://www.inkscape.org/namespaces/inkscape"
   fill="#fff"
   id="Capa_1"
   enable-background="new 0 0 512 512"
   height="512"
   viewBox="0 0 512 512"
   width="512"
   version="1.1"
   sodipodi:docname="grow.svg"
   inkscape:version="0.92.3 (2405546, 2018-03-11)">
  <metadata
     id="metadata25">
    <rdf:RDF>
      <cc:Work
         rdf:about="">
        <dc:format>image/svg+xml</dc:format>
        <dc:type
           rdf:resource="http://purl.org/dc/dcmitype/StillImage" />
      </cc:Work>
    </rdf:RDF>
  </metadata>
  <defs
     id="defs23" />
  <sodipodi:namedview
     pagecolor="#ffffff"
     bordercolor="#666666"
     borderopacity="1"
     objecttolerance="10"
     gridtolerance="10"
     guidetolerance="10"
     inkscape:pageopacity="0"
     inkscape:pageshadow="2"
     inkscape:window-width="1920"
     inkscape:window-height="1017"
     id="namedview21"
     showgrid="false"
     inkscape:zoom="0.921875"
     inkscape:cx="256"
     inkscape:cy="205.28075"
     inkscape:window-x="-4"
     inkscape:window-y="-4"
     inkscape:window-maximized="1"
     inkscape:current-layer="g18" />
  <g
     id="g18">
    <path
       style="stroke-width:1.14031982"
       inkscape:connector-curvature="0"
       d="M 332.68533,492.44107 H 153.64175 c -4.00004,0 -7.34972,-3.03344 -7.74616,-7.01119 l -15.56804,-155.6893 c -0.22272,-2.19156 0.49889,-4.3742 1.97329,-6.00005 1.47885,-1.63474 3.57686,-2.56125 5.77287,-2.56125 h 210.18411 c 2.19601,0 4.29402,0.92651 5.76841,2.56125 1.4744,1.62585 2.20047,3.80849 1.97776,6.00005 l -15.56805,155.6893 c -0.39644,3.97775 -3.75058,7.01119 -7.75061,7.01119 z M 160.68857,476.87302 H 325.6385 L 339.64752,336.74731 H 146.6751 Z m 0,0"
       id="path2" />
    <path
       style="stroke-width:1.14031982"
       inkscape:connector-curvature="0"
       d="M 363.82586,336.74731 H 122.50121 c -4.30291,0 -7.78179,-3.47887 -7.78179,-7.78179 v -31.14053 c 0,-4.30293 3.47888,-7.78179 7.78179,-7.78179 h 241.32465 c 4.30293,0 7.78179,3.47886 7.78179,7.78179 v 31.14053 c 0,4.30292 -3.47886,7.78179 -7.78179,7.78179 z M 130.28746,321.17928 H 356.03962 V 305.61123 H 130.28746 Z m 0,0"
       id="path4" />
    <path
       style="stroke-width:1.14031982"
       inkscape:connector-curvature="0"
       d="m 247.05444,305.61123 c -2.63699,0 -5.21608,-1.34523 -6.67265,-3.77731 -1.02007,-1.69712 -24.80642,-41.97803 -16.5302,-83.38143 8.00007,-39.97356 23.84428,-64.06282 24.51243,-65.0695 2.36973,-3.57687 7.19826,-4.54348 10.77959,-2.15593 3.58131,2.36973 4.55237,7.20719 2.18263,10.7885 -0.14698,0.21827 -14.85533,22.73513 -22.20504,59.49263 -7.08246,35.40337 14.39654,71.95596 14.61925,72.31676 2.196,3.69714 0.99332,8.47222 -2.69489,10.67269 -1.24723,0.75279 -2.62809,1.11359 -3.99112,1.11359 z m 0,0"
       id="path6" />
    <path
       style="stroke-width:1.14031982"
       inkscape:connector-curvature="0"
       d="m 262.62247,181.05802 c -47.21637,0 -85.62644,-38.41454 -85.62644,-85.63091 0,-47.21636 38.41007,-85.6308923 85.62644,-85.6308923 47.22083,0 85.63089,38.4145323 85.63089,85.6308923 0,47.21637 -38.41006,85.63091 -85.63089,85.63091 z m 0,-155.693763 c -38.63278,0 -70.0584,31.425613 -70.0584,70.062853 0,38.6328 31.42562,70.06287 70.0584,70.06287 38.63724,0 70.06286,-31.43007 70.06286,-70.06287 0,-38.63724 -31.42562,-70.062853 -70.06286,-70.062853 z m 0,0"
       id="path8" />
    <path
       style="stroke-width:1.14031982"
       inkscape:connector-curvature="0"
       d="m 240.18579,59.11951 c 0,-0.645888 0.42316,-1.073507 1.06459,-1.073507 h 27.07815 c 15.40768,0 22.68167,7.701615 22.68167,19.372079 0,8.240594 -3.84859,12.944406 -8.45441,15.407678 v 0.21381 c 4.49892,1.71939 9.74617,7.49672 9.74617,16.37428 0,14.44999 -9.10027,21.40772 -25.04694,21.40772 h -26.00464 c -0.64143,0 -1.06459,-0.42762 -1.06459,-1.07349 z m 27.82202,29.211791 c 6.4143,0 10.37869,-3.853041 10.37869,-9.52346 0,-5.777319 -3.96439,-9.63481 -10.37869,-9.63481 h -14.5569 c -0.43653,0 -0.64588,0.213809 -0.64588,0.641429 v 17.879862 c 0,0.427619 0.20935,0.636979 0.64588,0.636979 z m -14.56135,31.363249 h 15.19832 c 7.07355,0 11.02458,-4.06685 11.02458,-10.17379 0,-5.99114 -3.95103,-10.05798 -11.02458,-10.05798 h -15.19832 c -0.43208,0 -0.64589,0.21381 -0.64589,0.64589 v 18.93554 c 0,0.43653 0.21381,0.65034 0.64589,0.65034 z m 0,0"
       id="path10" />
    <path
       style="stroke-width:1.14031982"
       inkscape:connector-curvature="0"
       d="m 266.51559,64.286584 c -2.147,0 -3.89312,-1.741661 -3.89312,-3.888666 v -7.786249 c 0,-2.151463 1.74612,-3.893124 3.89312,-3.893124 2.15147,0 3.89314,1.741661 3.89314,3.893124 v 7.786249 c 0,2.147005 -1.73721,3.888666 -3.89314,3.888666 z m 0,0"
       id="path12" />
    <path
       style="stroke-width:1.14031982"
       inkscape:connector-curvature="0"
       d="m 266.51559,142.13569 c -2.147,0 -3.89312,-1.74167 -3.89312,-3.89312 v -7.78626 c 0,-2.15146 1.74612,-3.89311 3.89312,-3.89311 2.15147,0 3.89314,1.74165 3.89314,3.89311 v 7.78626 c 0,2.15145 -1.73721,3.89312 -3.89314,3.89312 z m 0,0"
       id="path14" />
    <path
       style="stroke-width:1.14031982"
       inkscape:connector-curvature="0"
       d="m 239.26374,282.25694 c -1.17151,0 -2.35637,-0.26725 -3.48333,-0.8285 -3.83967,-1.9243 -5.39425,-6.59248 -3.47441,-10.4366 0.78397,-1.57686 19.56361,-38.55707 47.90235,-46.81548 11.29629,-3.27842 22.44113,-1.71938 33.12718,4.69935 3.68821,2.20938 4.882,6.99338 2.66816,10.67715 -2.20937,3.68376 -6.98446,4.88199 -10.67713,2.66817 -6.89538,-4.13366 -13.66157,-5.15371 -20.73957,-3.10024 -21.80415,6.3252 -38.19181,38.51252 -38.36106,38.83768 -1.3586,2.72163 -4.1114,4.29847 -6.96219,4.29847 z m 0,0"
       id="path16" />
    <path
       style="stroke-width:1.14031982"
       inkscape:connector-curvature="0"
       d="m 231.47748,266.68891 c -1.70157,0 -3.42095,-0.5568 -4.8508,-1.70602 -16.58365,-13.25177 -39.59049,-25.74629 -46.15178,-22.47233 -3.84858,1.91094 -8.51231,0.36971 -10.44551,-3.47886 -1.91984,-3.84859 -0.36526,-8.52122 3.48332,-10.44551 18.59701,-9.30519 52.78879,16.20501 62.83786,24.23625 3.35415,2.69044 3.90203,7.58581 1.21605,10.93994 -1.54122,1.91984 -3.79959,2.92653 -6.08914,2.92653 z m 0,0"
       id="path18" />
    <path
       style="stroke-width:1.14031982"
       inkscape:connector-curvature="0"
       d="m 324.89908,266.68891 c -17.17161,0 -31.13608,-13.96892 -31.13608,-31.14053 0,-17.17162 13.96447,-31.13608 31.13608,-31.13608 15.11814,0 39.41231,21.10928 44.12503,25.34539 1.64367,1.4744 2.58354,3.57686 2.58354,5.79069 0,2.21382 -0.93987,4.32074 -2.58354,5.79514 -4.71272,4.23165 -29.00689,25.34539 -44.12503,25.34539 z m 0,-46.70858 c -8.57913,0 -15.56804,6.98446 -15.56804,15.56805 0,8.58357 6.98891,15.56803 15.56804,15.56803 4.82409,0 16.49901,-7.29626 26.86879,-15.56803 -10.31633,-8.25397 -21.90216,-15.56805 -26.86879,-15.56805 z m 0,0"
       id="path20" />
    <path
       style="stroke-width:1.14031982"
       inkscape:connector-curvature="0"
       d="m 153.20967,261.54856 c -3.55013,0 -7.11809,-0.61471 -10.55241,-1.84857 -14.22727,-5.10917 -29.95567,-33.18955 -32.95792,-38.77087 -1.04677,-1.94657 -1.22495,-4.24947 -0.47662,-6.32521 0.7528,-2.0802 2.34746,-3.74613 4.39202,-4.58355 5.87086,-2.37864 35.86216,-14.01792 50.08944,-8.93102 16.15601,5.8085 24.57923,23.67054 18.7841,39.83547 -2.81071,7.83079 -8.50341,14.09364 -16.03129,17.63486 -4.20939,1.99556 -8.72613,2.98889 -13.24732,2.98889 z M 127.89992,221.3211 c 6.91764,11.2473 15.34977,22.05361 20.01796,23.724 3.9243,1.42094 8.14259,1.19822 11.90208,-0.56125 3.76395,-1.77283 6.61029,-4.90427 8.01343,-8.81966 2.90425,-8.08024 -1.31405,-17.01126 -9.38983,-19.91552 -4.54346,-1.62138 -17.97785,1.28732 -30.54364,5.57243 z m 0,0"
       id="path22" />
  </g>
</svg>
