<svg width="24" height="24" viewBox="0 0 24 24" fill="none" xmlns="http://www.w3.org/2000/svg">
<path d="M12.0001 14C14.2061 14 16.0001 12.206 16.0001 10C16.0001 7.794 14.2061 6 12.0001 6C9.79406 6 8.00006 7.794 8.00006 10C8.00006 12.206 9.79406 14 12.0001 14ZM12.0001 8C13.1031 8 14.0001 8.897 14.0001 10C14.0001 11.103 13.1031 12 12.0001 12C10.8971 12 10.0001 11.103 10.0001 10C10.0001 8.897 10.8971 8 12.0001 8Z" fill="black"/>
<path d="M11.4201 21.814C11.5893 21.9349 11.7921 21.9998 12.0001 21.9998C12.2081 21.9998 12.4108 21.9349 12.5801 21.814C12.8841 21.599 20.0291 16.44 20.0001 10C20.0001 5.589 16.4111 2 12.0001 2C7.58909 2 4.00009 5.589 4.00009 9.995C3.97109 16.44 11.1161 21.599 11.4201 21.814ZM12.0001 4C15.3091 4 18.0001 6.691 18.0001 10.005C18.0211 14.443 13.6121 18.428 12.0001 19.735C10.3891 18.427 5.97909 14.441 6.00009 10C6.00009 6.691 8.69109 4 12.0001 4Z" fill="black"/>
</svg>
